<svg width="31" height="31" viewBox="0 0 31 31" fill="none" xmlns="http://www.w3.org/2000/svg">
<path d="M25.8333 11.625H14.2083C12.7816 11.625 11.625 12.7816 11.625 14.2083V25.8333C11.625 27.2601 12.7816 28.4167 14.2083 28.4167H25.8333C27.2601 28.4167 28.4167 27.2601 28.4167 25.8333V14.2083C28.4167 12.7816 27.2601 11.625 25.8333 11.625Z" stroke="#868686" stroke-width="2" stroke-linecap="round" stroke-linejoin="round"/>
<path d="M6.45898 19.375H5.16732C4.48218 19.375 3.82509 19.1028 3.34063 18.6183C2.85616 18.1339 2.58398 17.4768 2.58398 16.7916V5.16665C2.58398 4.4815 2.85616 3.82442 3.34063 3.33995C3.82509 2.85548 4.48218 2.58331 5.16732 2.58331H16.7923C17.4775 2.58331 18.1345 2.85548 18.619 3.33995C19.1035 3.82442 19.3757 4.4815 19.3757 5.16665V6.45831" stroke="#868686" stroke-width="2" stroke-linecap="round" stroke-linejoin="round"/>
</svg>
